<svg width="20509" height="5500" viewBox="0 0 20509 5500" fill="none" xmlns="http://www.w3.org/2000/svg">
<path d="M4415 3876.36H3481.36L3293.07 3549.23H3857.96L3020.04 2100.04L2737.59 2585.21L2550.86 2261.23L2834.88 1777.64L2459.85 1140.05L2084.83 1777.64L3202.06 3710.42L2459.85 5000L1717.65 3710.42L2182.12 2906.02L2368.84 3229.99L2084.83 3710.42L2459.85 4353.63L2834.88 3710.42L1899.67 2100.04L1061.75 3549.23H1626.64L1438.34 3876.36L500 3873.99L2459.85 500L4415 3876.36Z" fill="#EA4F39"/>
<path d="M5538.8 3414.7C5745.8 3414.7 5992.4 3299.5 5992.4 3018.7C5992.4 2772.1 5816 2714.5 5594.6 2628.1C5447 2570.5 5378.6 2538.1 5378.6 2458.9C5380.4 2377.9 5445.2 2331.1 5533.4 2331.1C5612.6 2331.1 5706.2 2370.7 5812.4 2457.1L5960 2266.3C5832.2 2161.9 5686.4 2104.3 5528 2104.3C5299.4 2106.1 5117.6 2264.5 5117.6 2469.7C5117.6 2712.7 5310.2 2800.9 5504.6 2867.5C5659.4 2921.5 5726 2955.7 5726 3049.3C5726 3128.5 5666.6 3184.3 5544.2 3184.3C5443.4 3184.3 5321 3132.1 5225.6 3024.1L5072.6 3211.3C5207.6 3349.9 5375 3414.7 5538.8 3414.7ZM6746.66 3414.7C7074.26 3414.7 7266.86 3202.3 7266.86 2869.3V2120.5H7013.06V2853.1C7013.06 3056.5 6901.46 3177.1 6746.66 3177.1C6577.46 3177.1 6483.86 3036.7 6483.86 2853.1V2120.5H6230.06V2869.3C6230.06 3218.5 6438.86 3414.7 6746.66 3414.7ZM7570.94 3398.5H7822.94V2554.3H7826.54L8393.54 3398.5H8647.34V2120.5H8397.14V2982.7H8393.54L7819.34 2120.5H7570.94V3398.5ZM9480.32 3398.5H9732.32V2606.5H9735.92L10045.5 3157.3H10209.3L10520.7 2608.3H10524.3V3398.5H10776.3V2120.5H10522.5L10130.1 2847.7H10126.5L9734.12 2120.5H9480.32V3398.5ZM11699.7 3414.7C12074.1 3414.7 12349.5 3148.3 12349.5 2759.5C12349.5 2368.9 12074.1 2104.3 11699.7 2104.3C11312.7 2104.3 11048.1 2379.7 11048.1 2759.5C11048.1 3139.3 11312.7 3414.7 11699.7 3414.7ZM11699.7 3177.1C11469.3 3177.1 11310.9 2991.7 11310.9 2759.5C11310.9 2527.3 11469.3 2341.9 11699.7 2341.9C11919.3 2341.9 12084.9 2518.3 12084.9 2759.5C12084.9 3000.7 11919.3 3177.1 11699.7 3177.1ZM12911.9 3398.5H13135.1L13608.5 2120.5H13338.5L13027.1 3034.9H13023.5L12710.3 2120.5H12436.7L12911.9 3398.5ZM13825.2 3398.5H14680.2V3173.5H14075.4V2874.7H14529V2653.3H14075.4V2345.5H14642.4V2120.5H13825.2V3398.5ZM14947.8 3398.5H15199.8V2606.5H15203.4L15513 3157.3H15676.8L15988.2 2608.3H15991.8V3398.5H16243.8V2120.5H15990L15597.6 2847.7H15594L15201.6 2120.5H14947.8V3398.5ZM16567.8 3398.5H17422.8V3173.5H16818V2874.7H17271.6V2653.3H16818V2345.5H17385V2120.5H16567.8V3398.5ZM17688.6 3398.5H17940.6V2554.3H17944.2L18511.2 3398.5H18765V2120.5H18514.8V2982.7H18511.2L17937 2120.5H17688.6V3398.5ZM19349.8 3398.5H19605.4V2345.5H19960V2120.5H19000.6V2345.5H19349.8V3398.5Z" fill="#EA4F39"/>
</svg>
